<svg height="80" viewBox="0 0 130 80" width="130" xmlns="http://www.w3.org/2000/svg"><g fill="#fff"><path d="m112.746 33.935v-9.319h-3.454v-1.238h8.3v1.238h-3.455v9.319z"/><path d="m119.003 33.935v-10.557h2.079l2.477 7.473c.229.697.396 1.217.5 1.563.121-.385.308-.948.561-1.692l2.524-7.344h1.856v10.557h-1.333v-8.833l-3.059 8.833h-1.25l-3.026-8.994v8.994z"/><path d="m103.906 72.189v-1.634a7.996 7.996 0 0 0 -1.627.145c-.531.103-.972.305-1.322.604-.351.299-.532.738-.546 1.317.012.546.156.946.434 1.201.278.256.614.382 1.01.38.577-.011 1.06-.203 1.447-.574.387-.372.588-.852.604-1.439m2.012-2.744v3.732c-.002.427.006.843.024 1.25a8 8 0 0 0 .119 1.102h-1.87l-.142-1.147a3.91 3.91 0 0 1 -1.173.961c-.466.248-1.009.376-1.628.383-.922-.025-1.633-.315-2.13-.872-.497-.556-.749-1.228-.754-2.016.018-1.229.511-2.15 1.48-2.762s2.305-.918 4.009-.917a3.987 3.987 0 0 0 -.074-.9 1.58 1.58 0 0 0 -.513-.899c-.281-.26-.746-.397-1.393-.41a4.657 4.657 0 0 0 -1.287.187 4.033 4.033 0 0 0 -1.1.497l-.428-1.383c.354-.23.804-.423 1.352-.58a6.949 6.949 0 0 1 1.821-.245c.954.011 1.7.203 2.238.576a2.97 2.97 0 0 1 1.134 1.469 5.59 5.59 0 0 1 .315 1.974zm-10.53-3.805h2.173l-2.369 6.857c-.565 1.61-1.089 2.91-1.571 3.902-.481.992-1.01 1.768-1.583 2.327-.454.408-.886.71-1.294.907s-.737.319-.987.368l-.534-1.76c.708-.275 1.277-.633 1.703-1.074.427-.44.735-.853.923-1.238.189-.384.282-.631.278-.739a.788.788 0 0 0 -.02-.182 1.247 1.247 0 0 0 -.087-.249l-3.367-9.119h2.263l1.781 5.565c.099.329.195.667.288 1.014l.248.961.299-.954.271-1.021zm-10.218 6.549v-1.634a7.996 7.996 0 0 0 -1.627.145c-.531.103-.972.305-1.322.604-.351.299-.533.738-.546 1.317.012.546.157.946.434 1.201.278.256.615.382 1.01.38.578-.011 1.06-.203 1.447-.574.388-.372.589-.852.604-1.439zm2.012-2.744v3.732c-.002.427.007.843.025 1.25.018.406.056.774.118 1.102h-1.869l-.142-1.147a3.923 3.923 0 0 1 -1.173.961c-.467.248-1.009.376-1.628.383-.923-.025-1.633-.315-2.13-.872-.498-.556-.75-1.228-.754-2.016.018-1.229.511-2.15 1.48-2.762.97-.612 2.305-.918 4.009-.917a4.107 4.107 0 0 0 -.074-.9 1.58 1.58 0 0 0 -.513-.899c-.282-.26-.746-.397-1.394-.41a4.664 4.664 0 0 0 -1.288.187 4.04 4.04 0 0 0 -1.099.497l-.427-1.383c.353-.23.804-.423 1.352-.58a6.94 6.94 0 0 1 1.82-.245c.955.011 1.7.203 2.239.576s.917.863 1.135 1.469c.216.604.32 1.263.313 1.974zm-11.597-8.311h2.065v14.394h-2.065zm-4.623 11.055v-1.634a7.993 7.993 0 0 0 -1.628.145c-.531.103-.972.305-1.322.604s-.532.738-.546 1.317c.012.546.158.946.435 1.201.277.256.614.382 1.01.38.576-.011 1.059-.203 1.446-.574.388-.372.589-.852.605-1.439zm2.012-2.744v3.732c-.003.427.005.843.024 1.25.019.406.058.774.119 1.102h-1.87l-.142-1.147a3.886 3.886 0 0 1 -1.173.961c-.466.248-1.008.376-1.627.383-.923-.025-1.633-.315-2.131-.872-.497-.556-.748-1.228-.754-2.016.018-1.229.511-2.15 1.481-2.762.968-.612 2.304-.918 4.008-.917a4.046 4.046 0 0 0 -.074-.9 1.58 1.58 0 0 0 -.513-.899c-.281-.26-.746-.397-1.393-.41a4.646 4.646 0 0 0 -1.287.187 4.054 4.054 0 0 0 -1.101.497l-.427-1.383c.353-.23.804-.423 1.351-.58a6.94 6.94 0 0 1 1.82-.245c.955.011 1.702.203 2.24.576s.916.863 1.134 1.469c.217.604.322 1.263.315 1.974zm-9.447.106v5.977h-2.029v-5.654c.003-.837-.138-1.501-.424-1.993-.286-.491-.739-.742-1.36-.754-.492.006-.929.21-1.308.609-.38.401-.579.964-.599 1.689v6.103h-2.029v-5.96c.003-.707-.133-1.286-.408-1.739s-.71-.688-1.303-.703c-.489.002-.935.208-1.338.617-.404.409-.618 1.005-.642 1.79v5.994h-2.029v-7.107a54.497 54.497 0 0 0 -.022-1.491l-.049-1.291h1.78l.106 1.452c.29-.431.641-.811 1.108-1.143.465-.331 1.071-.507 1.817-.525.628.007 1.166.17 1.614.489.448.32.777.761.986 1.322.362-.554.773-.992 1.269-1.315.497-.323 1.096-.488 1.797-.496.498-.007.979.119 1.444.377s.848.688 1.15 1.293c.303.605.459 1.425.469 2.459zm-18.19-3.911h2.065v9.889h-2.065zm2.243-2.729c-.004.34-.112.623-.325.849-.213.227-.508.344-.886.353-.362-.009-.65-.126-.863-.353a1.215 1.215 0 0 1 -.33-.849c.006-.357.119-.648.338-.872.22-.225.511-.34.873-.348.362.008.649.123.863.348.215.223.325.515.33.872zm-4.966-1.13v13.748h-2.065v-6.247h-5.563v6.247h-2.065v-13.748h2.065v5.672h5.563v-5.672zm-22.073 7.79h4.314a3.805 3.805 0 0 0 -.171-1.216 2.214 2.214 0 0 0 -.637-1.017c-.302-.273-.716-.416-1.242-.426-.502.012-.916.156-1.237.434-.322.278-.565.62-.73 1.025a4.104 4.104 0 0 0 -.297 1.2zm5.436 4.092.339 1.471c-.35.166-.79.305-1.318.417a9.063 9.063 0 0 1 -1.8.175c-1.49-.02-2.637-.477-3.444-1.372s-1.216-2.107-1.225-3.635c.003-.992.179-1.886.527-2.681.349-.795.852-1.427 1.51-1.895s1.451-.708 2.381-.719c.917.014 1.661.244 2.23.691a3.846 3.846 0 0 1 1.247 1.747c.263.718.391 1.491.388 2.318 0 .338-.018.631-.053.879h-6.238c.051 1.103.359 1.893.927 2.371.567.478 1.251.711 2.05.701a6.988 6.988 0 0 0 1.406-.133 5.67 5.67 0 0 0 1.073-.335zm-9.428-4.112v5.977h-2.065v-5.78c.009-.729-.129-1.34-.414-1.834-.286-.493-.771-.75-1.458-.769-.533.004-1.01.207-1.433.608s-.647.976-.671 1.725v6.05h-2.065v-14.394h2.065v5.851c.366-.512.783-.9 1.284-1.164a3.359 3.359 0 0 1 1.569-.397 3.028 3.028 0 0 1 1.484.377c.485.258.886.688 1.206 1.293.32.603.486 1.423.498 2.457zm-14.295-3.911v-1.795l2.047-.646v2.441h2.335v1.56h-2.335v5.01c-.003.609.096 1.064.296 1.364s.518.45.951.449a3.024 3.024 0 0 0 .909-.126l.071 1.596a3.06 3.06 0 0 1 -.675.17 6.37 6.37 0 0 1 -.929.063 3.108 3.108 0 0 1 -1.117-.195 2.1 2.1 0 0 1 -.824-.558c-.248-.265-.432-.613-.551-1.045s-.179-.969-.178-1.611v-5.117h-1.39v-1.56zm89.408-41.907c-1.872.042-3.382.834-4.53 2.377-1.148 1.541-1.827 3.581-2.038 6.117 0 .091.039.201.116.331s.193.202.348.215c1.1-.001 2.539-.025 4.315-.072a206.73 206.73 0 0 0 5.072-.193c1.605-.082 2.699-.175 3.285-.28.084-.078.168-.175.251-.293a.74.74 0 0 0 .135-.409c-.236-1.995-.942-3.77-2.116-5.327-1.173-1.559-2.786-2.38-4.838-2.466zm2.473-3.259c2.432.059 4.401.693 5.909 1.901s2.643 2.637 3.403 4.288c.761 1.65 1.237 3.167 1.428 4.55.034.124.141.266.319.429.179.162.459.305.84.429-.012.24-.085.596-.222 1.069-.138.472-.269.789-.397.95-1.127.264-2.856.515-5.185.753-2.33.24-4.831.445-7.504.615a192.66 192.66 0 0 1 -7.247.339.547.547 0 0 0 -.347.312 1.258 1.258 0 0 0 -.116.545c.085 1.648.417 3.163.995 4.548.578 1.384 1.354 2.569 2.328 3.554 1.073 1.128 2.287 1.968 3.642 2.522 1.354.553 2.896.828 4.627.827a13.195 13.195 0 0 0 4.481-.72c1.417-.494 2.834-1.318 4.25-2.473.047.042.108.113.184.214s.118.21.126.331c.055.349.021.78-.106 1.295l-.281 1.12c-1.742 1.902-3.761 3.323-6.055 4.264-2.295.941-4.371 1.41-6.23 1.408-2.053-.02-3.878-.369-5.476-1.049-1.599-.68-2.941-1.573-4.026-2.681a14.296 14.296 0 0 1 -3.453-5.789c-.698-2.218-1.039-4.441-1.022-6.67.045-3.393.707-6.291 1.987-8.695s2.906-4.253 4.881-5.548a16.808 16.808 0 0 1 4.163-1.93c1.497-.464 2.866-.7 4.104-.708zm-17.159 27.008c-1.918 2.259-3.992 3.842-6.22 4.75s-4.224 1.345-5.988 1.311c-2.469-.013-4.642-.492-6.52-1.437-1.878-.946-3.49-2.279-4.835-4.001-.939-1.277-1.684-2.832-2.237-4.663a20.318 20.318 0 0 1 -.849-5.771c.003-2.939.672-5.607 2.006-8.001s3.316-4.398 5.943-6.014c1.741-1.05 3.514-1.842 5.323-2.377 1.808-.535 3.408-.804 4.8-.806 1.396 0 2.545.097 3.449.291a11.83 11.83 0 0 1 2.578.873 6.3 6.3 0 0 1 1.536.845c.439.335.777.752 1.014 1.252a6.12 6.12 0 0 1 -.048.592 6.01 6.01 0 0 1 -.106.652c-.306.631-.737 1.296-1.295 1.995-.557.699-1.027 1.15-1.41 1.353a2.302 2.302 0 0 1 -.415.097c-.153.022-.272.016-.357-.019-.768-.823-1.918-1.709-3.449-2.657-1.531-.95-3.24-1.466-5.128-1.548-2.914.105-5.027 1.198-6.337 3.279-1.31 2.082-1.954 4.518-1.932 7.31a18.23 18.23 0 0 0 .715 5.179c.479 1.639 1.22 3.053 2.222 4.244 1.117 1.389 2.399 2.388 3.844 2.997 1.446.61 3.075.909 4.887.896 1.358.019 2.777-.253 4.26-.818 1.483-.564 2.999-1.538 4.55-2.92.087.009.184.07.291.185a.603.603 0 0 1 .173.36 9.657 9.657 0 0 1 -.144 1.46c-.093.546-.2.916-.321 1.111zm-52.716-34.303a398.46 398.46 0 0 1 -1.756 5.029l-2.152 6.085a257.53 257.53 0 0 0 -1.808 5.288c-.013.324.09.531.309.622.426.037 1.215.058 2.366.063l3.814.005 2.926-.005c.98-.005 1.705-.026 2.173-.063.124-.01.224-.088.299-.233a.528.528 0 0 0 .01-.466l-1.897-5.531a689.606 689.606 0 0 0 -2.155-6.169 143.546 143.546 0 0 0 -1.742-4.702c-.045-.036-.11-.042-.194-.02a.454.454 0 0 0 -.193.097zm-24.028 37.183c2.65-.269 4.549-.841 5.694-1.714 1.146-.873 2.31-2.768 3.494-5.685.97-2.306 2.09-5.087 3.361-8.343a962.238 962.238 0 0 0 3.833-9.996c1.284-3.408 2.431-6.492 3.442-9.251 1.01-2.76 1.74-4.796 2.189-6.107.319-.876.609-1.732.87-2.569.26-.837.435-1.538.521-2.102l.907.034a48.4 48.4 0 0 0 3.593 0l.83-.034.599 2.014c.209.715.447 1.445.714 2.189.42 1.205 1.18 3.343 2.278 6.413l1.534 4.27c3.325-.632 7.085-3.841 11.688-6.375.521.759 1.607.947 3.259.562l7.532-7.113c.269-.188.524-.171.765.054 4.449 7.957 8.793 5.671 10.376 6.073 1.087.281 2.207 1.59 2.953 1.513 4.704-2.312 7.456-4.481 8.259-6.506 3.129.6 6.453-1.862 9.969-7.385.517-.8 1.598-.434 1.847.352.458 1.156 1.015 1.844 1.67 2.063.658-.276 1.163-.112 1.505.494 3.608 4.195 18.561 21.828 36.065 15.815-17.505 6.024-32.456-9.651-36.065-13.846-.343-.605-.848-.77-1.505-.494-.655-.219-1.213-.907-1.67-2.063-.249-.785-1.33-1.152-1.847-.351-3.516 5.522-6.84 7.984-9.969 7.385-.802 2.025-3.554 4.193-8.259 6.506-.746.077-1.867-1.232-2.953-1.512-1.584-.403-5.928 1.885-10.376-6.073-.241-.224-.496-.242-.765-.054l-7.532 7.113c-1.652.385-2.738.197-3.259-.562-4.512 2.484-8.214 4.821-11.489 4.96l1.978 5.456c1.375 3.783 2.69 7.346 3.943 10.688 1.253 3.344 2.243 5.89 2.973 7.641.731 1.758 1.398 3.062 2 3.912a4.76 4.76 0 0 0 2.361 1.783c.972.338 2.377.621 4.216.848.148.186.199.589.154 1.212-.045.622-.148 1.045-.309 1.269-1.045-.043-2.432-.09-4.163-.141a205.131 205.131 0 0 0 -5.496-.083c-2.129.004-4.189.032-6.183.083-1.993.051-3.435.098-4.327.141-.121-.225-.188-.647-.203-1.269-.014-.622.053-1.026.203-1.212l2.357-.399a11.821 11.821 0 0 0 1.893-.458c.527-.245.845-.553.957-.925a1.712 1.712 0 0 0 -.03-1.1c-.511-1.754-1.209-3.873-2.096-6.356a225.84 225.84 0 0 0 -2.386-6.416.738.738 0 0 0 -.318-.389c-.16-.101-.285-.153-.377-.156a63.598 63.598 0 0 0 -2.994-.063l-4.502-.004a822.387 822.387 0 0 0 -4.703.004c-.762.006-1.306.027-1.632.063-.166.02-.337.117-.512.292-.176.175-.288.311-.339.409a230.937 230.937 0 0 0 -2.549 7c-.831 2.396-1.295 4.087-1.392 5.072-.079.693.024 1.254.31 1.684.287.43 1.007.777 2.163 1.042.477.117 1.05.234 1.719.351l2.067.35c.114.181.156.575.125 1.183-.031.607-.124 1.04-.28 1.298-.811-.009-2.125-.046-3.94-.111a195.03 195.03 0 0 0 -6.256-.112c-2.256.009-4.057.046-5.406.112a93.809 93.809 0 0 1 -3.088.111c-.15-.224-.228-.637-.228-1.245s.078-1.02.232-1.24z"/></g></svg>