<svg height="19" viewBox="0 0 220 19" width="220" xmlns="http://www.w3.org/2000/svg"><path d="m7.792 9.812c-1.116.884-2.884 2.421-4.38 2.421-.673 0-1.368-.273-1.305-1.074l.042-.463c4.043-1.326 5.075-2.884 5.075-3.916 0-.842-.842-1.01-1.516-1.01-2.737-.022-5.79 2.8-5.706 5.558.042 1.39.758 2.758 2.295 2.758 2.084 0 4.4-1.98 5.685-3.474zm-5.516-.147c.568-1.39 1.79-2.4 2.842-2.675.148-.042.253.085.253.232.02.358-1.242 1.81-3.095 2.443zm10.928-1.285c.905.19 1.958-1.516 1.873-1.958-.02-.105-.042-.337-.273-.337-.442 0-.885.421-1.2.716l-1.874 1.705.063-1.916c.02-.336.084-1.094-.421-1.094-.632 0-3.706 2.674-3.706 3.095 0 .147.084.252.232.273.147.021.463-.19 2.02-.99l.022 2.527-1.116.99c-.526.147-.758.295-1.116.716-.19.232-.737.947-.737 1.242 0 .19.147.295.337.295.421 0 1.095-.632 1.39-.905l1.22-1.18c0 .8-.252 2.527.97 2.527 1.431 0 3.347-2.358 4.4-3.263l-.126-.843c-.61.506-1.853 1.727-2.674 1.727-.632 0-.78-.463-.758-.99l.02-.884zm6.421 3.2a4.545 4.545 0 0 0 -1.768-.21c.568-.758 1.158-1.474 1.937-2.042.274-.19 1.284-.843 1.621-.843.169 0 .232.148.232.295 0 .38-.295.737-.527 1.032l-1.495 1.769zm-3.2 1.811c.274.064.547.127.842.127.337 0 .653-.063.969-.127.505.253.926.421 1.495.421 2.274 0 4.169-1.516 5.727-3.032l-.148-.968c-2.252 1.937-2.674 2.274-4.484 2.148 2.358-2.085 3.41-3.538 3.41-4.696 0-.547-.315-.99-.884-.99-1.137 0-3.263 1.39-4.169 2.043l-.042-.042c.421-.948 1.074-1.727 1.79-2.485.337-.358 1.432-1.368 1.432-1.832 0-.4-.674-.505-.969-.505-.8 0-1.179.61-1.684 1.158l-5.58 6.001.084.99 3.327-3.18.042.042c-1.369 2.316-2.421 4.043-3.39 5.412-.863 1.22-1.326 2.274-1.305 3.326 0 .38.126.948.61.948.4 0 .78-.569.948-.884zm16.487-3.58c-1.116.885-2.885 2.422-4.38 2.422-.674 0-1.369-.273-1.305-1.074l.042-.463c4.042-1.326 5.074-2.884 5.074-3.916 0-.842-.842-1.01-1.516-1.01-2.737-.022-5.79 2.8-5.706 5.558.042 1.39.758 2.758 2.295 2.758 2.085 0 4.4-1.98 5.685-3.474l-.19-.8zm-5.517-.146c.568-1.39 1.79-2.4 2.842-2.675.148-.042.253.085.253.232.021.358-1.242 1.81-3.095 2.443zm9.075-.97.042.043c-.842 1.01-1.937 2.127-1.937 3.558 0 .8.547 1.622 1.432 1.622 1.2 0 3.621-2.337 4.421-3.243l-.147-.779c-.695.527-2.021 1.895-2.927 1.895-.316 0-.652-.253-.652-.59 0-.842 1.031-1.873 1.642-2.4.484-.4.884-.716.884-1.368-.042-.38-.19-.716-.505-1.116-.21-.253-1.369 0-3.348.273.084-.19.147-.379.147-.59 0-.189-.168-.357-.379-.357-.505 0-2.653 1.516-2.653 3.032 0 .442.127.61.569.653-.4.568-.842 1.095-1.39 1.537l.084.926c.906-.905 1.79-1.453 2.527-2.61l2.19-.485zm9.412 1.517c-.842.61-1.937 1.727-3.053 1.727-.969 0-1.285-.464-1.116-1.327.884-.61 2.969-2.485 2.969-3.537 0-.464-.569-.59-.927-.59-1.263 0-3.895 2.506-3.895 5.075 0 1.073.568 2.505 1.81 2.505 1.6 0 3.454-1.895 4.401-3.053l-.19-.8zm-.99-4.148c.906 0 1.685-1.032 1.685-1.874 0-.379-.316-.653-.695-.653-.821 0-1.832.758-1.832 1.622 0 .505.337.905.842.905zm8.717 3.748c-1.116.884-2.884 2.421-4.38 2.421-.673 0-1.368-.273-1.305-1.074l.042-.463c4.043-1.326 5.075-2.884 5.075-3.916 0-.842-.843-1.01-1.516-1.01-2.738-.022-5.79 2.8-5.706 5.558.042 1.39.758 2.758 2.295 2.758 2.084 0 4.4-1.98 5.685-3.474zm-5.516-.147c.568-1.39 1.79-2.4 2.842-2.675.147-.042.253.085.253.232.02.358-1.243 1.81-3.095 2.443zm14.002.968c-.38.316-1.306 1.053-1.811 1.053a.391.391 0 0 1 -.38-.38c0-1.452 2.59-3.052 2.59-3.873a4.899 4.899 0 0 0 -.315-1.137c-.127-.295-.253-.4-.337-.4-.61 0-4.485 2.59-6.17 4.737-.084.105-.273.295-.42.295a.234.234 0 0 1 -.232-.232c0-.505 2.653-2.632 2.653-3.453 0-.126.105-.421-1.158-.463-.358 0-.548.02-.821.253-1.222 1.031-2.548 3.158-2.485 4.61.021.717.253 2.043 1.18 2.043.568 0 1.347-1.032 1.663-1.432.947-1.22 2.02-2.316 3.242-3.221l.042.042c-.674.969-1.81 2.358-1.81 3.622 0 .715.378 1.39 1.179 1.39 1.537 0 3.705-2.59 4.821-3.58l-.168-.927zm5.18-2.169c.02.4.23.927.715.927.569 0 2.232-1.621 2.232-2.78 0-.631-.295-.968-.948-.968-1.179 0-3.2 1.137-4.147 1.853-1.37 1.032-2 1.684-2 3.453 0 1.558.778 3.074 2.4 3.074 2 0 4.358-2.084 5.642-3.453l-.252-.821c-1.221.947-3.053 2.421-4.653 2.421-1.095 0-1.6-.653-1.6-1.137 0-.59.378-.905.842-1.242l1.768-1.327zm11.095 1.348c-1.115.884-2.884 2.421-4.38 2.421-.673 0-1.368-.273-1.305-1.074l.043-.463c4.042-1.326 5.074-2.884 5.074-3.916 0-.842-.842-1.01-1.516-1.01-2.737-.022-5.79 2.8-5.706 5.558.042 1.39.758 2.758 2.295 2.758 2.084 0 4.4-1.98 5.685-3.474zm-5.516-.147c.568-1.39 1.79-2.4 2.842-2.675.148-.042.253.085.253.232.021.358-1.242 1.81-3.095 2.443zm18.57-4.801c.211-.295.822-.99.822-1.369 0-.337-.4-.4-.674-.4-1.22 0-1.684.99-2.316 1.853-2.253.084-2.421.421-3.558 2.274l-.232.38c1.116-.17.716-.085 2-.085-.779 1.326-1.937 2.4-3.2 3.369l.232.8 1.073-.863.043.042c-.274.61-.548 1.41-.548 2.105 0 .842.505 1.41 1.327 1.41 1.79 0 4.063-2.252 5.306-3.389l-.106-.926c-2.19 1.558-2.947 2.19-3.621 2.19-.484 0-.632-.274-.632-.738 0-1.263 1.2-2.99 1.916-3.916 2.316.147 2.485-.632 3.474-2.632l-1.305-.105zm1.475 5.411c1.347-1.325 8.043-8.275 8.043-9.705 0-.422-.568-.569-.905-.569-.716 0-4.906 3.685-7.39 7.79-.738 1.2-1.285 2.211-1.285 3.664 0 .485.105 2.127.842 2.127.674 0 1.727-2.232 5.327-4.696l.042.043c-.758.99-2.21 2.59-2.21 3.916 0 .568.336 1.116.968 1.116 1.158 0 3.706-2.064 4.674-2.8l-.105-.864c-.61.4-2.148 1.537-2.843 1.537-.252 0-.463-.168-.463-.442 0-.21-.063-.274 1.242-1.853.253-.295 1.095-1.221 1.095-1.621 0-.484-.505-1.01-1.01-1.01-1.158 0-4.99 3.368-6.022 4.19v-.822zm15.602-.463c-1.116.884-2.885 2.421-4.38 2.421-.673 0-1.368-.273-1.305-1.074l.042-.463c4.043-1.326 5.074-2.884 5.074-3.916 0-.842-.842-1.01-1.516-1.01-2.737-.022-5.79 2.8-5.706 5.558.043 1.39.758 2.758 2.295 2.758 2.085 0 4.401-1.98 5.685-3.474zm-5.517-.147c.569-1.39 1.79-2.4 2.843-2.675.147-.042.253.085.253.232.02.358-1.243 1.81-3.096 2.443zm23.14-5.749c.337-.526.906-1.39.906-2.021 0-.379-.253-.8-.674-.8-1.537 0-3.39 4.358-4.085 5.559-.273-.316-.442-.611-.884-.59-1.79.105-5.98 2.21-5.98 4.695 0 .737.59 2.759 1.537 2.759.948 0 2.906-2.043 3.643-2.674-.084.526-.169 1.073-.169 1.6 0 .674.316 1.516 1.116 1.516 1.537 0 3.706-2.211 4.696-3.306l-.148-.695c-.673.442-2.61 2.148-3.326 2.148-.464 0-.485-.716-.485-1.053 0-1.347 1.011-2.716 1.706-3.81zm-4.569 3.98c-.336 1.242-3.726 3.769-3.98 3.706-.23-.042-.336-.21-.315-.4.126-1.39.59-2.106 4.295-3.306zm10.297 2.316c-.843.61-1.938 1.727-3.053 1.727-.969 0-1.285-.464-1.116-1.327.884-.61 2.968-2.485 2.968-3.537 0-.464-.568-.59-.926-.59-1.263 0-3.895 2.506-3.895 5.075 0 1.073.568 2.505 1.81 2.505 1.6 0 3.454-1.895 4.401-3.053l-.19-.8zm-.99-4.148c.905 0 1.684-1.032 1.684-1.874 0-.379-.315-.653-.694-.653-.822 0-1.832.758-1.832 1.622 0 .505.337.905.842.905zm1.558 11.202c-.316-.611-.505-1.2-.421-1.874.084-.695.421-1.453.969-2.38.505.19.842.21 1.516.169.189 1.579-.758 3.221-2.064 4.085zm6.085-12.655c.463-.653 1.095-2.126 1.095-2.948 0-.336-.042-.926-.505-.926-1.074 0-3.79 5.011-4.338 6.043-.652 1.2-1.326 2.19-2.569 2.863-.61.337-1.179.569-1.179 1.411 0 .527.274.842.611 1.2-.569 1.2-1.474 2.864-1.474 4.233 0 .694.274 2.653 1.242 2.505 1.537-.231 4.485-2.548 4.654-5.053.02-.38.063-.758-.021-1.158 1.031-.506 1.874-1.243 2.716-2l-.232-.78-2.842 1.77c-.274-.612-.485-1.306-1.095-1.664zm1.58 12.655c-.317-.611-.506-1.2-.422-1.874.084-.695.421-1.453.969-2.38.505.19.842.21 1.516.169.19 1.579-.758 3.221-2.064 4.085zm6.084-12.655c.464-.653 1.095-2.126 1.095-2.948 0-.336-.042-.926-.505-.926-1.074 0-3.79 5.011-4.338 6.043-.652 1.2-1.326 2.19-2.568 2.863-.61.337-1.18.569-1.18 1.411 0 .527.274.842.611 1.2-.568 1.2-1.474 2.864-1.474 4.233 0 .694.274 2.653 1.243 2.505 1.537-.231 4.484-2.548 4.653-5.053.02-.38.063-.758-.021-1.158 1.032-.506 1.874-1.243 2.716-2l-.232-.78-2.842 1.77c-.274-.612-.484-1.306-1.095-1.664zm7.601 5.2c-1.116.885-2.884 2.422-4.38 2.422-.673 0-1.368-.273-1.305-1.074l.043-.463c4.042-1.326 5.074-2.884 5.074-3.916 0-.842-.842-1.01-1.516-1.01-2.737-.022-5.79 2.8-5.706 5.558.042 1.39.758 2.758 2.295 2.758 2.084 0 4.4-1.98 5.685-3.474l-.19-.8zm-5.516-.146c.568-1.39 1.79-2.4 2.842-2.675.148-.042.253.085.253.232.021.358-1.242 1.81-3.095 2.443zm9.075-.97.042.043c-.842 1.01-1.937 2.127-1.937 3.558 0 .8.547 1.622 1.432 1.622 1.2 0 3.621-2.337 4.421-3.243l-.147-.779c-.695.527-2.021 1.895-2.927 1.895-.316 0-.653-.253-.653-.59 0-.842 1.032-1.873 1.643-2.4.484-.4.884-.716.884-1.368-.042-.38-.19-.716-.505-1.116-.21-.253-1.369 0-3.348.273.084-.19.147-.379.147-.59 0-.189-.168-.357-.379-.357-.505 0-2.653 1.516-2.653 3.032 0 .442.127.61.569.653-.4.568-.842 1.095-1.39 1.537l.084.926c.906-.905 1.79-1.453 2.527-2.61l2.19-.485zm11.286 1.117c-1.116.884-2.885 2.421-4.38 2.421-.674 0-1.369-.273-1.305-1.074l.042-.463c4.042-1.326 5.074-2.884 5.074-3.916 0-.842-.842-1.01-1.516-1.01-2.737-.022-5.79 2.8-5.706 5.558.042 1.39.758 2.758 2.295 2.758 2.085 0 4.4-1.98 5.685-3.474l-.19-.8zm-5.517-.147c.569-1.39 1.79-2.4 2.843-2.675.147-.042.252.085.252.232.021.358-1.242 1.81-3.095 2.443zm14.002.968c-.379.316-1.305 1.053-1.81 1.053a.391.391 0 0 1 -.38-.38c0-1.452 2.59-3.052 2.59-3.873a4.899 4.899 0 0 0 -.316-1.137c-.126-.295-.252-.4-.337-.4-.61 0-4.485 2.59-6.169 4.737-.084.105-.274.295-.421.295a.234.234 0 0 1 -.232-.232c0-.505 2.653-2.632 2.653-3.453 0-.126.106-.421-1.158-.463-.358 0-.547.02-.82.253-1.222 1.031-2.549 3.158-2.485 4.61.02.717.252 2.043 1.179 2.043.568 0 1.347-1.032 1.663-1.432.948-1.22 2.021-2.316 3.243-3.221l.042.042c-.674.969-1.811 2.358-1.811 3.622 0 .715.379 1.39 1.179 1.39 1.537 0 3.706-2.59 4.822-3.58l-.169-.927zm5.18-2.169c.02.4.231.927.716.927.568 0 2.231-1.621 2.231-2.78 0-.631-.294-.968-.947-.968-1.18 0-3.2 1.137-4.148 1.853-1.369 1.032-2 1.684-2 3.453 0 1.558.779 3.074 2.4 3.074 2 0 4.359-2.084 5.643-3.453l-.253-.821c-1.221.947-3.053 2.421-4.653 2.421-1.095 0-1.6-.653-1.6-1.137 0-.59.379-.905.842-1.242zm11.096 1.348c-1.116.884-2.885 2.421-4.38 2.421-.673 0-1.368-.273-1.305-1.074l.042-.463c4.043-1.326 5.074-2.884 5.074-3.916 0-.842-.842-1.01-1.516-1.01-2.737-.022-5.79 2.8-5.706 5.558.042 1.39.758 2.758 2.295 2.758 2.085 0 4.401-1.98 5.685-3.474l-.19-.8zm-5.517-.147c.569-1.39 1.79-2.4 2.843-2.675.147-.042.253.085.253.232.02.358-1.243 1.81-3.096 2.443zm15.834 4.19c1.306.147 1.832-2.443 1.832-2.464 0-.61-.737-.61-1.032-.674-1.2-.252-2.126 1.495-2.126 2.253 0 .716.758.821 1.326.885zm7.012 0c1.305.147 1.831-2.443 1.831-2.464 0-.61-.736-.61-1.031-.674-1.2-.252-2.127 1.495-2.127 2.253 0 .716.758.821 1.327.885zm7.011 0c1.306.147 1.832-2.443 1.832-2.464 0-.61-.737-.61-1.032-.674-1.2-.252-2.126 1.495-2.126 2.253 0 .716.758.821 1.326.885z" fill="#888" fill-rule="evenodd"/></svg>